<svg width="512" height="512" viewBox="0 0 512 512" xmlns="http://www.w3.org/2000/svg">
  <defs>
    <linearGradient id="capGrad" x1="0%" y1="0%" x2="0%" y2="100%">
      <stop offset="0%" style="stop-color:#337ab7;stop-opacity:1" />
      <stop offset="100%" style="stop-color:#2a6496;stop-opacity:1" />
    </linearGradient>
  </defs>

  <!-- Graduation Cap -->
  <path d="M256 120 L400 180 L256 240 L112 180 Z" fill="#337ab7"/>
  <path d="M190 210 V230 C190 230 220 250 256 250 C292 250 322 230 322 230 V210 L256 238 Z" fill="#4ea9ed"/>
  <path d="M130 188 V230" stroke="#337ab7" stroke-width="6" stroke-linecap="round"/>
  <rect x="124" y="225" width="12" height="25" rx="4" fill="#337ab7"/>

  <!-- Left Side (Green) -->
  <path d="M250 290 Q220 275 160 275 C180 300 220 325 250 328 Z" fill="#4caf50"/>
  <path d="M250 335 Q200 310 110 320 C140 360 210 390 250 392 Z" fill="#4caf50" opacity="0.9"/>
  
  <!-- Right Side (Blue) -->
  <path d="M262 290 Q292 275 352 275 C332 300 292 325 262 328 Z" fill="#1a5bb8"/>
  <path d="M262 335 Q312 310 402 320 C372 360 302 390 262 392 Z" fill="#1a5bb8" opacity="0.9"/>

  <!-- Text -->
  <text x="256" y="460" font-family="'Outfit', 'Inter', sans-serif" font-weight="900" font-size="78" text-anchor="middle" fill="#1a5bb8">UniFlow</text>
</svg>
